<?xml version="1.0" standalone="no"?>
<!DOCTYPE svg PUBLIC "-//W3C//DTD SVG 20010904//EN"
 "http://www.w3.org/TR/2001/REC-SVG-20010904/DTD/svg10.dtd">
<svg version="1.0" xmlns="http://www.w3.org/2000/svg"
 width="430.000000pt" height="420.000000pt" viewBox="0 0 430.000000 420.000000"
 preserveAspectRatio="xMidYMid meet">

<g transform="translate(0.000000,420.000000) scale(0.100000,-0.100000)"
fill="#000000" stroke="none">
<path d="M2450 3930 c-13 -8 -12 -10 3 -10 9 0 17 5 17 10 0 12 -1 12 -20 0z"/>
<path d="M2290 3920 c0 -5 5 -10 11 -10 5 0 7 5 4 10 -3 6 -8 10 -11 10 -2 0
-4 -4 -4 -10z"/>
<path d="M2490 3890 c0 -5 5 -10 10 -10 6 0 10 5 10 10 0 6 -4 10 -10 10 -5 0
-10 -4 -10 -10z"/>
<path d="M2416 3875 c-3 -8 -1 -15 4 -15 13 0 22 18 11 24 -5 3 -11 -1 -15 -9z"/>
<path d="M3250 3881 c0 -5 5 -13 10 -16 6 -3 10 -2 10 4 0 5 -4 13 -10 16 -5
3 -10 2 -10 -4z"/>
<path d="M2370 3860 c0 -5 5 -10 10 -10 6 0 10 5 10 10 0 6 -4 10 -10 10 -5 0
-10 -4 -10 -10z"/>
<path d="M2475 3851 c-3 -6 -15 -11 -26 -11 -43 0 -7 -41 42 -46 18 -2 28 0
24 6 -3 6 -18 10 -32 10 -25 0 -26 0 -8 20 10 11 16 23 13 26 -3 3 -9 1 -13
-5z"/>
<path d="M2860 3840 c0 -5 5 -10 11 -10 5 0 7 5 4 10 -3 6 -8 10 -11 10 -2 0
-4 -4 -4 -10z"/>
<path d="M3271 3804 c0 -11 3 -14 6 -6 3 7 2 16 -1 19 -3 4 -6 -2 -5 -13z"/>
<path d="M2840 3780 c0 -5 5 -10 11 -10 5 0 7 5 4 10 -3 6 -8 10 -11 10 -2 0
-4 -4 -4 -10z"/>
<path d="M3340 3781 c0 -6 5 -13 10 -16 6 -3 10 1 10 9 0 9 -4 16 -10 16 -5 0
-10 -4 -10 -9z"/>
<path d="M3456 3775 c4 -8 10 -12 15 -9 14 8 10 24 -6 24 -9 0 -12 -6 -9 -15z"/>
<path d="M2555 3770 c-3 -5 -1 -10 4 -10 6 0 11 5 11 10 0 6 -2 10 -4 10 -3 0
-8 -4 -11 -10z"/>
<path d="M3280 3772 c0 -15 28 -34 45 -30 12 2 8 8 -14 21 -17 10 -31 14 -31
9z"/>
<path d="M2459 3758 c-1 -7 -1 -18 0 -25 2 -15 -16 -26 -23 -14 -3 5 -15 7
-26 4 -26 -7 -19 -16 29 -41 l39 -21 -5 39 c-5 35 -3 38 14 34 11 -3 25 1 31
9 9 10 9 14 -1 14 -6 0 -22 3 -34 7 -16 5 -23 3 -24 -6z"/>
<path d="M1927 3753 c-10 -9 -9 -23 2 -23 5 0 11 7 15 15 5 15 -5 20 -17 8z"/>
<path d="M2070 3750 c0 -6 7 -10 15 -10 8 0 15 2 15 4 0 2 -7 6 -15 10 -8 3
-15 1 -15 -4z"/>
<path d="M3471 3734 c0 -11 3 -14 6 -6 3 7 2 16 -1 19 -3 4 -6 -2 -5 -13z"/>
<path d="M2840 3730 c-8 -5 -12 -12 -9 -15 8 -8 39 5 39 16 0 11 -11 11 -30
-1z"/>
<path d="M3098 3728 c7 -7 12 -20 12 -30 0 -10 5 -18 10 -18 6 0 10 8 10 18 0
20 -18 42 -34 42 -6 0 -5 -5 2 -12z"/>
<path d="M3385 3730 c3 -5 13 -10 21 -10 8 0 12 5 9 10 -3 6 -13 10 -21 10 -8
0 -12 -4 -9 -10z"/>
<path d="M2341 3704 c0 -11 3 -14 6 -6 3 7 2 16 -1 19 -3 4 -6 -2 -5 -13z"/>
<path d="M2980 3710 c0 -5 5 -10 11 -10 5 0 7 5 4 10 -3 6 -8 10 -11 10 -2 0
-4 -4 -4 -10z"/>
<path d="M3180 3710 c0 -5 5 -10 11 -10 5 0 7 5 4 10 -3 6 -8 10 -11 10 -2 0
-4 -4 -4 -10z"/>
<path d="M1826 3695 c-3 -9 0 -15 9 -15 8 0 15 7 15 15 0 8 -4 15 -9 15 -5 0
-11 -7 -15 -15z"/>
<path d="M2080 3688 c-12 -22 -12 -22 6 -6 10 10 15 20 12 24 -4 3 -12 -5 -18
-18z"/>
<path d="M2615 3700 c-9 -14 4 -32 17 -24 6 4 15 0 20 -7 7 -11 11 -11 15 -1
2 6 11 12 19 12 17 0 19 16 3 26 -6 3 -15 0 -20 -7 -6 -11 -11 -11 -21 -1 -15
15 -25 15 -33 2z"/>
<path d="M2810 3700 c0 -5 5 -10 11 -10 5 0 7 5 4 10 -3 6 -8 10 -11 10 -2 0
-4 -4 -4 -10z"/>
<path d="M3210 3703 c1 -29 60 -45 60 -16 0 10 -6 14 -20 10 -11 -3 -20 -1
-20 4 0 5 -4 9 -10 9 -5 0 -10 -3 -10 -7z"/>
<path d="M1437 3671 c-3 -14 0 -21 9 -21 16 0 18 9 5 28 -6 10 -10 9 -14 -7z"/>
<path d="M1636 3678 c-15 -8 -16 -12 -5 -19 20 -13 36 -11 42 5 7 19 -14 27
-37 14z"/>
<path d="M2850 3671 c-27 -12 -35 -21 -32 -38 2 -12 10 -24 18 -27 10 -4 14
-1 11 6 -2 7 5 26 16 42 20 28 21 28 28 7 5 -11 13 -21 19 -21 15 0 12 15 -7
32 -16 14 -22 14 -53 -1z"/>
<path d="M3450 3670 c0 -11 4 -20 9 -20 6 0 9 9 8 20 -1 11 -5 20 -9 20 -4 0
-8 -9 -8 -20z"/>
<path d="M1700 3665 c-7 -9 -11 -17 -9 -20 3 -2 10 5 17 15 14 24 10 26 -8 5z"/>
<path d="M2132 3649 c-7 -11 -11 -23 -9 -25 7 -7 29 24 25 36 -2 6 -9 1 -16
-11z"/>
<path d="M2178 3664 c-5 -4 -8 -16 -8 -28 0 -14 3 -17 11 -9 6 6 9 19 7 28 -1
9 -6 13 -10 9z"/>
<path d="M1906 3653 c-11 -11 -6 -23 9 -23 8 0 15 4 15 9 0 13 -16 22 -24 14z"/>
<path d="M2464 3645 c-19 -14 -19 -14 2 -15 22 0 58 -32 48 -43 -3 -3 -17 -2
-30 3 -24 9 -34 -2 -14 -15 6 -4 7 -11 4 -17 -4 -7 -9 -6 -14 2 -13 21 -28 2
-24 -29 3 -29 2 -30 -21 -21 -14 5 -25 6 -25 2 0 -16 32 -52 41 -46 5 3 17 0
25 -7 13 -10 17 -10 24 1 7 12 12 11 30 -5 11 -10 38 -25 58 -31 l37 -13 -24
20 c-13 11 -30 18 -37 15 -7 -3 -11 0 -8 7 5 13 52 16 72 4 13 -9 15 -3 13 26
-1 9 5 20 14 23 11 5 5 12 -25 26 -43 22 -49 32 -24 42 26 10 52 7 57 -6 2 -7
7 -10 11 -7 4 4 -9 19 -29 34 l-35 28 -21 -24 -21 -24 -24 30 c-13 17 -24 36
-24 43 0 16 -12 15 -36 -3z m23 -117 c-3 -8 -6 -5 -6 6 -1 11 2 17 5 13 3 -3
4 -12 1 -19z m79 11 c10 -17 -17 -29 -38 -16 -10 7 -18 15 -18 19 0 12 48 9
56 -3z m-86 -55 c0 -16 -16 -19 -25 -4 -8 13 4 32 16 25 5 -4 9 -13 9 -21z
m35 16 c3 -5 1 -10 -4 -10 -6 0 -11 5 -11 10 0 6 2 10 4 10 3 0 8 -4 11 -10z"/>
<path d="M2688 3641 c-21 -25 -8 -56 24 -56 14 0 30 4 35 9 4 5 3 7 -2 3 -6
-3 -12 3 -12 14 -3 39 24 13 33 -31 1 -8 5 -26 9 -40 5 -19 4 -22 -4 -10 -8
12 -10 7 -8 -22 2 -32 6 -38 29 -44 15 -3 30 -10 33 -15 9 -13 29 -11 51 6 12
10 14 13 3 10 -11 -4 -19 5 -27 33 -7 22 -12 45 -12 51 0 7 -11 23 -25 37 -14
14 -25 29 -25 35 0 6 -4 7 -10 4 -6 -3 -7 1 -4 9 3 9 2 16 -2 17 -5 0 -23 2
-40 3 -20 2 -37 -3 -46 -13z"/>
<path d="M3516 3653 c-3 -3 6 -12 21 -20 34 -17 41 -10 9 10 -13 9 -26 13 -30
10z"/>
<path d="M2610 3635 c0 -8 7 -15 15 -15 9 0 12 6 9 15 -4 8 -10 15 -15 15 -5
0 -9 -7 -9 -15z"/>
<path d="M2380 3631 c0 -5 7 -12 16 -15 14 -5 15 -4 4 9 -14 17 -20 19 -20 6z"/>
<path d="M2420 3630 c0 -5 5 -10 10 -10 6 0 10 5 10 10 0 6 -4 10 -10 10 -5 0
-10 -4 -10 -10z"/>
<path d="M3404 3625 c-7 -17 24 -70 34 -60 4 3 2 9 -4 13 -17 11 -23 39 -11
51 8 8 8 11 -1 11 -7 0 -15 -7 -18 -15z"/>
<path d="M2252 3610 c0 -14 2 -19 5 -12 2 6 2 18 0 25 -3 6 -5 1 -5 -13z"/>
<path d="M1480 3594 c0 -14 4 -23 9 -20 5 3 7 15 4 26 -7 28 -13 25 -13 -6z"/>
<path d="M1594 3595 c-2 -32 12 -32 18 0 3 15 1 25 -6 25 -6 0 -12 -11 -12
-25z"/>
<path d="M1700 3610 c0 -5 5 -10 10 -10 6 0 10 5 10 10 0 6 -4 10 -10 10 -5 0
-10 -4 -10 -10z"/>
<path d="M1730 3616 c0 -2 7 -7 16 -10 8 -3 12 -2 9 4 -6 10 -25 14 -25 6z"/>
<path d="M1782 3600 c6 -19 38 -26 38 -9 0 7 -3 9 -7 6 -3 -4 -13 -1 -21 6
-13 10 -14 9 -10 -3z"/>
<path d="M1965 3601 c-6 -11 9 -23 19 -14 9 9 7 23 -3 23 -6 0 -12 -4 -16 -9z"/>
<path d="M2018 3593 c7 -3 16 -2 19 1 4 3 -2 6 -13 5 -11 0 -14 -3 -6 -6z"/>
<path d="M2070 3590 c0 -5 7 -10 15 -10 8 0 15 5 15 10 0 6 -7 10 -15 10 -8 0
-15 -4 -15 -10z"/>
<path d="M2974 3575 c1 -16 7 -22 24 -22 12 0 22 3 22 8 0 5 0 12 0 17 0 4
-11 10 -24 13 -20 6 -24 3 -22 -16z"/>
<path d="M3206 3585 c-3 -8 -1 -15 4 -15 13 0 22 18 11 24 -5 3 -11 -1 -15 -9z"/>
<path d="M3460 3591 c0 -6 5 -13 10 -16 6 -3 10 1 10 9 0 9 -4 16 -10 16 -5 0
-10 -4 -10 -9z"/>
<path d="M1421 3574 c0 -11 3 -14 6 -6 3 7 2 16 -1 19 -3 4 -6 -2 -5 -13z"/>
<path d="M2227 3583 c-4 -3 -7 -13 -7 -22 1 -13 3 -13 11 2 11 19 8 33 -4 20z"/>
<path d="M2292 3578 c-7 -9 -6 -17 4 -26 12 -11 14 -9 14 13 0 28 -3 30 -18
13z"/>
<path d="M1525 3569 c-4 -6 -4 -13 -1 -16 3 -4 6 -1 6 6 0 7 5 9 12 5 7 -4 8
-3 4 4 -9 15 -13 15 -21 1z"/>
<path d="M3585 3570 c-8 -13 20 -24 36 -15 8 6 7 10 -2 16 -18 11 -26 11 -34
-1z"/>
<path d="M1342 3550 c0 -14 2 -19 5 -12 2 6 2 18 0 25 -3 6 -5 1 -5 -13z"/>
<path d="M3135 3560 c-3 -5 3 -10 14 -10 12 0 21 5 21 10 0 6 -6 10 -14 10 -8
0 -18 -4 -21 -10z"/>
<path d="M1370 3541 c0 -6 4 -13 10 -16 6 -3 7 1 4 9 -7 18 -14 21 -14 7z"/>
<path d="M1170 3529 c0 -5 5 -7 10 -4 6 3 10 8 10 11 0 2 -4 4 -10 4 -5 0 -10
-5 -10 -11z"/>
<path d="M3043 3514 c22 -25 48 -34 27 -9 -6 8 -10 18 -7 22 3 4 -5 9 -18 9
l-23 2 21 -24z"/>
<path d="M2065 3510 c-4 -12 -1 -27 5 -35 10 -12 9 -15 -4 -15 -9 0 -16 -5
-16 -11 0 -6 8 -9 18 -7 10 2 16 11 14 23 -1 11 -3 30 -4 43 -1 27 -5 28 -13
2z"/>
<path d="M2220 3520 c0 -5 4 -10 9 -10 6 0 13 5 16 10 3 6 -1 10 -9 10 -9 0
-16 -4 -16 -10z"/>
<path d="M2920 3516 c0 -8 13 -22 29 -30 38 -20 45 -41 15 -42 -15 -1 -24 4
-24 12 0 8 -4 14 -10 14 -5 0 -10 7 -10 15 0 28 -18 15 -22 -16 -3 -21 0 -34
13 -43 10 -7 20 -25 23 -41 3 -15 10 -32 17 -35 15 -10 2 -47 -20 -59 -20 -11
-36 -3 -36 19 0 26 -30 21 -42 -7 -10 -20 -10 -30 -1 -40 12 -15 13 -19 19
-80 2 -17 6 -30 10 -27 4 2 5 13 2 24 -3 11 -1 20 5 20 6 0 8 17 6 43 -5 41
-5 42 12 20 20 -28 34 -29 34 -3 0 19 14 25 48 21 15 -2 16 31 0 47 -9 9 -9
12 0 12 7 0 12 -5 12 -11 0 -8 4 -8 13 -1 7 6 23 10 36 9 19 -1 22 -6 17 -29
-3 -18 0 -30 8 -35 8 -4 16 -19 18 -33 2 -15 9 -24 18 -22 10 1 9 -3 -4 -13
-16 -12 -17 -15 -4 -15 9 0 18 -4 20 -10 2 -5 13 8 25 30 16 31 18 40 7 40 -8
0 -14 6 -14 13 0 19 -37 40 -43 24 -3 -7 -8 -5 -13 7 -4 12 -3 21 3 23 6 2 9
13 6 23 -3 11 -9 18 -13 15 -5 -3 -11 -1 -14 4 -4 5 -20 8 -37 6 -25 -4 -29
-2 -19 9 12 15 -3 32 -19 22 -12 -8 -41 3 -41 15 0 4 7 6 15 3 8 -3 22 2 31
11 16 16 16 19 2 43 -9 15 -30 35 -47 45 -27 16 -31 17 -31 3z m70 -147 c-7
-11 -14 -18 -17 -15 -3 3 0 12 7 21 18 21 23 19 10 -6z"/>
<path d="M2014 3506 c-10 -8 -16 -18 -11 -22 4 -4 7 -2 7 4 0 7 7 12 15 12 8
0 15 5 15 10 0 13 -3 13 -26 -4z"/>
<path d="M3763 3498 c14 -22 23 -23 30 -4 4 9 -3 16 -18 18 -20 4 -22 3 -12
-14z"/>
<path d="M1159 3493 c-13 -16 -12 -17 4 -4 9 7 17 15 17 17 0 8 -8 3 -21 -13z"/>
<path d="M1340 3497 c0 -8 6 -14 13 -14 8 0 14 6 14 14 0 7 -6 13 -14 13 -7 0
-13 -6 -13 -13z"/>
<path d="M1530 3499 c0 -5 5 -7 10 -4 6 3 10 8 10 11 0 2 -4 4 -10 4 -5 0 -10
-5 -10 -11z"/>
<path d="M2117 3504 c-9 -9 4 -35 14 -28 5 3 9 12 9 20 0 14 -12 19 -23 8z"/>
<path d="M3540 3481 c0 -10 7 -24 15 -31 8 -7 15 -21 15 -31 0 -11 6 -19 14
-19 16 0 10 44 -12 78 -17 27 -32 29 -32 3z"/>
<path d="M3653 3485 c-19 -22 -16 -28 12 -21 18 5 27 2 31 -9 4 -8 12 -15 19
-15 8 0 3 12 -13 30 -30 34 -32 35 -49 15z"/>
<path d="M2160 3449 c0 -19 5 -41 10 -49 7 -10 8 -1 4 30 -8 56 -14 64 -14 19z"/>
<path d="M1247 3457 c-11 -29 -9 -43 4 -30 6 6 9 19 7 29 -3 18 -4 18 -11 1z"/>
<path d="M1350 3456 c0 -8 -5 -16 -10 -18 -6 -2 -1 -9 10 -16 18 -11 20 -10
20 12 0 14 -4 28 -10 31 -5 3 -10 0 -10 -9z"/>
<path d="M2192 3450 c0 -14 2 -19 5 -12 2 6 2 18 0 25 -3 6 -5 1 -5 -13z"/>
<path d="M2664 3454 c3 -8 6 -22 6 -30 0 -8 5 -14 11 -14 5 0 7 5 4 10 -3 6 0
10 8 10 8 0 18 -8 22 -17 7 -17 8 -16 15 2 8 19 9 19 9 -2 1 -13 5 -23 10 -23
7 0 8 24 2 70 -1 12 -4 12 -15 -2 -14 -19 -46 -25 -46 -9 0 5 -7 12 -16 15
-12 5 -15 2 -10 -10z"/>
<path d="M3347 3455 c-4 -8 -2 -17 3 -20 6 -4 10 3 10 14 0 25 -6 27 -13 6z"/>
<path d="M3610 3445 c7 -8 20 -15 29 -15 13 1 13 3 -3 15 -26 19 -42 19 -26 0z"/>
<path d="M2131 3424 c0 -11 3 -14 6 -6 3 7 2 16 -1 19 -3 4 -6 -2 -5 -13z"/>
<path d="M2357 3433 c-4 -3 -7 -11 -7 -17 0 -6 5 -5 12 2 6 6 9 14 7 17 -3 3
-9 2 -12 -2z"/>
<path d="M2610 3410 c-7 -17 -16 -30 -21 -30 -17 0 -9 -18 10 -23 14 -3 18 -1
14 9 -3 8 2 17 11 20 9 3 16 14 16 24 0 32 -17 31 -30 0z"/>
<path d="M2225 3420 c4 -6 11 -8 16 -5 14 9 11 15 -7 15 -8 0 -12 -5 -9 -10z"/>
<path d="M2380 3420 c0 -6 7 -10 15 -10 8 0 15 2 15 4 0 2 -7 6 -15 10 -8 3
-15 1 -15 -4z"/>
<path d="M2776 3415 c4 -8 10 -15 15 -15 5 0 9 7 9 15 0 8 -7 15 -15 15 -9 0
-12 -6 -9 -15z"/>
<path d="M3464 3423 c-13 -5 -6 -43 7 -43 5 0 14 -11 19 -25 6 -15 15 -23 23
-19 17 6 47 -21 47 -42 0 -8 8 -14 18 -14 13 0 14 2 4 9 -7 4 -12 12 -10 17 3
10 -54 69 -76 77 -8 3 -16 14 -18 25 -2 10 -8 17 -14 15z"/>
<path d="M2190 3410 c0 -5 5 -10 11 -10 5 0 7 5 4 10 -3 6 -8 10 -11 10 -2 0
-4 -4 -4 -10z"/>
<path d="M2420 3410 c0 -5 5 -10 11 -10 5 0 7 5 4 10 -3 6 -8 10 -11 10 -2 0
-4 -4 -4 -10z"/>
<path d="M3145 3390 c16 -18 14 -25 -7 -21 -15 2 -8 -14 11 -26 20 -13 61 -7
61 9 0 23 -34 58 -58 58 -24 0 -25 0 -7 -20z"/>
<path d="M3730 3402 c0 -10 27 -42 35 -42 3 0 1 10 -4 22 -8 23 -31 37 -31 20z"/>
<path d="M1215 3385 c-5 -11 -10 -23 -12 -27 -2 -4 3 -5 11 -2 11 4 16 0 16
-12 0 -9 3 -15 6 -12 3 3 1 21 -4 39 -8 30 -10 32 -17 14z"/>
<path d="M1390 3371 c0 -5 7 -11 14 -14 10 -4 13 -1 9 9 -6 15 -23 19 -23 5z"/>
<path d="M3245 3370 c3 -5 11 -10 17 -10 6 0 17 -8 24 -17 7 -10 16 -15 20
-11 11 11 -26 48 -48 48 -11 0 -16 -4 -13 -10z"/>
<path d="M3390 3370 c0 -5 9 -10 20 -10 11 0 20 5 20 10 0 6 -9 10 -20 10 -11
0 -20 -4 -20 -10z"/>
<path d="M1467 3355 c-4 -8 -2 -17 3 -20 6 -4 10 3 10 14 0 25 -6 27 -13 6z"/>
<path d="M1340 3346 c0 -9 5 -16 10 -16 6 0 10 4 10 9 0 6 -4 13 -10 16 -5 3
-10 -1 -10 -9z"/>
<path d="M2776 3344 c-10 -26 -6 -30 9 -10 15 19 15 19 15 1 0 -15 3 -16 12
-7 10 10 10 15 -2 22 -21 13 -27 12 -34 -6z"/>
<path d="M2915 3341 c-3 -5 -1 -12 5 -16 5 -3 10 1 10 9 0 18 -6 21 -15 7z"/>
<path d="M1420 3330 c0 -5 5 -10 10 -10 6 0 10 5 10 10 0 6 -4 10 -10 10 -5 0
-10 -4 -10 -10z"/>
<path d="M1550 3329 c0 -5 5 -7 10 -4 6 3 10 8 10 11 0 2 -4 4 -10 4 -5 0 -10
-5 -10 -11z"/>
<path d="M2170 3308 c0 -21 2 -38 4 -38 9 0 12 50 5 62 -6 8 -9 -1 -9 -24z"/>
<path d="M2333 3322 c-8 -5 -9 -13 -3 -22 6 -8 10 -13 11 -10 0 3 2 13 4 23 4
19 4 19 -12 9z"/>
<path d="M2835 3320 c3 -5 8 -10 11 -10 2 0 4 5 4 10 0 6 -5 10 -11 10 -5 0
-7 -4 -4 -10z"/>
<path d="M3510 3311 c0 -6 5 -13 10 -16 6 -3 10 1 10 9 0 9 -4 16 -10 16 -5 0
-10 -4 -10 -9z"/>
<path d="M2492 3298 c-19 -19 -14 -30 8 -18 11 6 20 15 20 20 0 14 -14 12 -28
-2z"/>
<path d="M2726 3295 c4 -8 8 -15 10 -15 2 0 4 7 4 15 0 8 -4 15 -10 15 -5 0
-7 -7 -4 -15z"/>
<path d="M3140 3300 c0 -5 5 -10 11 -10 5 0 7 5 4 10 -3 6 -8 10 -11 10 -2 0
-4 -4 -4 -10z"/>
<path d="M3680 3301 c0 -5 7 -14 15 -21 13 -10 15 -9 15 9 0 12 -6 21 -15 21
-8 0 -15 -4 -15 -9z"/>
<path d="M2653 3285 c5 -14 39 -13 44 2 3 9 -4 12 -21 11 -15 -1 -25 -7 -23
-13z"/>
<path d="M2765 3290 c3 -5 8 -10 11 -10 2 0 4 5 4 10 0 6 -5 10 -11 10 -5 0
-7 -4 -4 -10z"/>
<path d="M3257 3254 c-23 -30 -22 -50 5 -68 27 -19 41 -11 28 15 -6 11 -16 16
-22 13 -13 -8 -3 12 19 37 11 13 11 17 1 22 -7 2 -21 -6 -31 -19z"/>
<path d="M3771 3264 c0 -11 3 -14 6 -6 3 7 2 16 -1 19 -3 4 -6 -2 -5 -13z"/>
<path d="M2963 3255 c0 -8 4 -15 9 -15 4 0 8 7 8 15 0 8 -4 15 -8 15 -5 0 -9
-7 -9 -15z"/>
<path d="M3362 3254 c10 -10 20 -15 24 -12 3 4 -5 12 -18 18 -22 12 -22 12 -6
-6z"/>
<path d="M3652 3263 c-9 -3 -7 -12 8 -33 15 -21 17 -30 8 -33 -9 -4 -10 -6 -1
-6 20 -2 24 16 11 47 -7 16 -19 27 -26 25z"/>
<path d="M3446 3244 c-4 -11 1 -25 13 -38 18 -17 21 -18 26 -3 4 9 -1 25 -13
37 -18 19 -20 20 -26 4z"/>
<path d="M3607 3228 c-8 -29 0 -36 19 -17 13 14 13 17 1 28 -12 9 -16 7 -20
-11z"/>
<path d="M2711 3204 c0 -11 3 -14 6 -6 3 7 2 16 -1 19 -3 4 -6 -2 -5 -13z"/>
<path d="M2917 3194 c-17 -23 -18 -27 -3 -49 20 -30 30 -32 21 -5 -5 16 -2 20
14 20 12 0 21 -4 21 -10 0 -5 7 -10 15 -10 13 0 14 -4 4 -21 -9 -18 -13 -19
-21 -8 -6 10 -7 6 -2 -11 10 -36 43 -80 60 -80 8 0 14 -4 14 -10 0 -5 -10 -10
-22 -10 -19 0 -20 -2 -8 -10 8 -5 11 -10 5 -10 -5 0 -2 -6 7 -14 10 -7 31 -11
48 -8 34 5 39 25 14 61 -11 16 -13 26 -6 33 6 6 8 16 5 23 -8 23 16 57 37 50
20 -6 32 5 22 22 -4 5 -21 17 -38 26 -30 16 -32 15 -42 -7 -6 -15 -7 -28 0
-40 18 -33 -10 -100 -38 -89 -17 6 -18 35 -1 52 8 8 8 11 1 9 -7 -2 -12 0 -13
5 -3 19 0 28 7 23 4 -2 8 5 8 17 0 24 -38 65 -44 48 -7 -20 -20 -11 -15 9 3
11 0 20 -6 20 -6 0 -11 -8 -12 -17 0 -16 -1 -16 -7 -1 -6 14 -10 13 -25 -8z"/>
<path d="M3210 3209 c0 -5 5 -7 10 -4 6 3 10 8 10 11 0 2 -4 4 -10 4 -5 0 -10
-5 -10 -11z"/>
<path d="M3167 3203 c-11 -10 -8 -51 3 -58 6 -3 10 3 10 14 0 12 5 21 10 21 6
0 10 -6 10 -14 0 -8 6 -17 13 -19 8 -4 7 -6 -3 -6 -15 -1 35 -31 51 -31 14 0
-1 28 -34 65 -30 34 -47 42 -60 28z"/>
<path d="M3408 3179 c5 -11 11 -20 15 -20 4 1 12 1 19 1 6 0 3 9 -7 20 -23 26
-36 26 -27 -1z"/>
<path d="M3621 3186 c-16 -19 -11 -29 8 -17 7 5 12 14 9 21 -3 9 -8 7 -17 -4z"/>
<path d="M1270 3170 c0 -5 5 -10 10 -10 6 0 10 5 10 10 0 6 -4 10 -10 10 -5 0
-10 -4 -10 -10z"/>
<path d="M2684 3147 c-3 -9 -12 -13 -20 -10 -10 4 -12 0 -8 -11 3 -9 10 -16
15 -16 11 0 32 40 25 47 -3 3 -8 -1 -12 -10z"/>
<path d="M2790 3146 c0 -9 5 -16 10 -16 6 0 10 4 10 9 0 6 -4 13 -10 16 -5 3
-10 -1 -10 -9z"/>
<path d="M3656 3134 c-4 -15 -2 -32 5 -40 20 -24 -6 -42 -29 -21 -22 20 -53
24 -34 5 18 -18 15 -49 -3 -42 -8 4 -15 17 -15 30 0 13 -5 24 -10 24 -10 0 -7
-49 5 -87 7 -20 24 -15 36 10 11 25 54 48 75 40 18 -6 18 14 2 67 -15 47 -23
50 -32 14z"/>
<path d="M3916 3130 c10 -20 19 -29 22 -21 2 7 -5 23 -17 35 l-22 21 17 -35z"/>
<path d="M2412 3128 c-7 -7 -12 -19 -12 -27 0 -19 23 1 26 24 3 18 1 18 -14 3z"/>
<path d="M2901 3104 c0 -11 3 -14 6 -6 3 7 2 16 -1 19 -3 4 -6 -2 -5 -13z"/>
<path d="M2275 3079 c-4 -6 -5 -12 -2 -15 2 -3 7 2 10 11 7 17 1 20 -8 4z"/>
<path d="M3271 3081 c-1 -8 -8 -11 -21 -8 -11 3 -20 2 -20 -1 0 -10 67 -52 82
-52 6 0 2 10 -9 23 -11 12 -23 29 -26 37 -4 11 -6 12 -6 1z"/>
<path d="M2803 3033 c-7 -2 -9 -11 -6 -19 3 -9 -1 -14 -13 -14 -22 -1 -57 -28
-66 -51 -5 -12 0 -18 18 -22 19 -3 22 -1 14 8 -15 18 12 43 54 51 27 5 33 10
29 25 -6 23 -13 28 -30 22z"/>
<path d="M3775 3030 c3 -5 8 -10 11 -10 2 0 4 5 4 10 0 6 -5 10 -11 10 -5 0
-7 -4 -4 -10z"/>
<path d="M3370 3020 c0 -5 5 -10 10 -10 6 0 10 5 10 10 0 6 -4 10 -10 10 -5 0
-10 -4 -10 -10z"/>
<path d="M3126 2998 c-18 -25 -21 -58 -6 -58 6 0 10 -7 10 -16 0 -8 5 -12 11
-8 7 4 7 10 1 16 -14 14 -3 38 17 38 13 0 13 -2 2 -9 -7 -5 -10 -14 -6 -20 5
-9 13 -8 30 3 13 9 31 13 39 10 12 -4 16 0 16 15 0 18 -4 20 -24 15 -19 -4
-26 -1 -31 15 -8 27 -40 27 -59 -1z"/>
<path d="M3712 2990 c7 -11 16 -21 20 -21 5 -1 12 -2 17 -3 5 0 13 -4 17 -8
16 -17 22 -6 12 22 -7 22 -14 28 -22 21 -7 -6 -17 -6 -26 -1 -24 15 -31 11
-18 -10z"/>
<path d="M3393 2974 c-6 -13 -7 -24 -3 -24 9 0 25 39 18 45 -2 2 -8 -7 -15
-21z"/>
<path d="M3294 2975 c25 -19 33 -19 33 0 0 10 -10 15 -26 15 -25 -1 -25 -1 -7
-15z"/>
<path d="M3570 2970 c0 -5 5 -10 10 -10 6 0 10 5 10 10 0 6 -4 10 -10 10 -5 0
-10 -4 -10 -10z"/>
<path d="M2934 2935 c-20 -30 -10 -47 11 -19 14 18 20 44 10 44 -2 0 -12 -11
-21 -25z"/>
<path d="M3733 2932 c-24 -4 -30 -16 -14 -27 6 -3 8 -19 6 -35 -4 -33 1 -35
39 -20 33 12 33 28 1 36 -24 6 -36 34 -15 34 6 0 10 -5 10 -12 0 -6 3 -9 6 -5
12 12 -12 32 -33 29z"/>
<path d="M3364 2898 c-6 -18 -14 -41 -19 -50 -4 -11 -3 -18 4 -18 7 0 17 14
22 30 13 35 29 40 29 8 1 -23 1 -23 15 2 8 14 14 28 15 31 0 5 -44 29 -53 29
-1 0 -7 -15 -13 -32z"/>
<path d="M3473 2897 c0 -12 -3 -30 -7 -39 -5 -11 -4 -18 3 -18 6 0 11 5 11 10
0 6 7 10 16 10 13 0 14 3 4 15 -6 8 -9 18 -6 24 3 5 0 11 -8 14 -9 4 -14 -2
-13 -16z"/>
<path d="M3945 2900 c-3 -5 -1 -10 4 -10 6 0 11 5 11 10 0 6 -2 10 -4 10 -3 0
-8 -4 -11 -10z"/>
<path d="M3149 2881 l23 -21 -26 0 c-14 0 -26 -4 -26 -10 0 -5 13 -8 30 -7 16
1 30 5 30 9 0 4 7 5 15 2 9 -4 13 -16 11 -35 -2 -16 1 -29 5 -29 5 0 9 9 9 20
0 11 7 23 15 26 29 11 -11 39 -85 58 l-25 7 24 -20z"/>
<path d="M3628 2883 c17 -7 15 -26 -3 -19 -8 3 -15 1 -15 -4 0 -17 39 -11 49
8 8 15 5 18 -17 19 -15 1 -21 -1 -14 -4z"/>
<path d="M3881 2854 c0 -11 3 -14 6 -6 3 7 2 16 -1 19 -3 4 -6 -2 -5 -13z"/>
<path d="M3683 2844 c4 -4 -1 -13 -11 -20 -24 -17 -9 -28 17 -12 25 16 26 24
4 32 -10 4 -14 4 -10 0z"/>
<path d="M3810 2841 c0 -5 -3 -18 -6 -28 -4 -14 -4 -15 4 -4 5 7 14 11 20 7 6
-4 8 2 5 14 -5 20 -23 28 -23 11z"/>
<path d="M3290 2821 c0 -25 6 -27 13 -6 4 8 2 17 -3 20 -6 4 -10 -3 -10 -14z"/>
<path d="M3600 2830 c0 -5 5 -10 10 -10 6 0 10 -7 10 -15 0 -16 15 -21 23 -7
3 4 -6 15 -19 25 -13 10 -24 13 -24 7z"/>
<path d="M3390 2814 c0 -8 5 -12 10 -9 6 4 8 11 5 16 -9 14 -15 11 -15 -7z"/>
<path d="M3157 2800 c-41 -25 -44 -31 -9 -19 30 10 49 26 41 33 -2 2 -16 -4
-32 -14z"/>
<path d="M2805 2800 c3 -5 8 -10 11 -10 2 0 4 5 4 10 0 6 -5 10 -11 10 -5 0
-7 -4 -4 -10z"/>
<path d="M3271 2771 c-9 -6 -5 -13 13 -25 14 -9 26 -12 26 -6 0 5 -5 10 -11
10 -5 0 -8 4 -4 9 8 13 -8 21 -24 12z"/>
<path d="M3645 2760 c-3 -5 -1 -10 4 -10 6 0 11 5 11 10 0 6 -2 10 -4 10 -3 0
-8 -4 -11 -10z"/>
<path d="M3573 2725 c-6 -14 -10 -25 -10 -25 1 0 20 7 42 15 28 10 33 14 18
15 -13 0 -23 5 -23 10 0 19 -15 10 -27 -15z"/>
<path d="M3260 2700 c6 -11 15 -18 19 -15 5 2 11 -4 14 -15 3 -11 0 -20 -6
-20 -7 0 -6 -4 3 -9 23 -15 30 -3 15 26 -11 21 -12 29 -2 36 9 6 8 7 -3 4 -8
-2 -23 0 -33 5 -16 8 -17 7 -7 -12z"/>
<path d="M3417 2701 c-4 -16 -1 -21 14 -21 20 0 26 -24 9 -35 -5 -3 -10 -14
-10 -23 0 -15 1 -15 16 0 12 12 23 14 40 8 17 -7 24 -5 28 7 4 9 4 18 1 21 -3
3 -5 0 -5 -6 0 -6 -9 -10 -20 -9 -19 1 -25 14 -20 46 1 9 -4 12 -14 8 -9 -4
-19 1 -24 10 -8 13 -10 12 -15 -6z"/>
<path d="M3670 2695 c-21 -25 -1 -31 23 -7 17 18 18 22 5 22 -8 0 -21 -7 -28
-15z"/>
<path d="M3845 2680 c-4 -6 -3 -16 3 -22 6 -6 12 -6 17 2 4 6 3 16 -3 22 -6 6
-12 6 -17 -2z"/>
<path d="M3097 2673 c-4 -3 -7 -13 -7 -22 1 -13 3 -13 11 2 11 19 8 33 -4 20z"/>
<path d="M1670 2645 c0 -8 4 -15 10 -15 5 0 7 7 4 15 -4 8 -8 15 -10 15 -2 0
-4 -7 -4 -15z"/>
<path d="M3740 2615 c-7 -9 -8 -15 -2 -15 5 0 12 7 16 15 3 8 4 15 2 15 -2 0
-9 -7 -16 -15z"/>
<path d="M3865 2620 c-3 -5 -1 -10 4 -10 6 0 11 5 11 10 0 6 -2 10 -4 10 -3 0
-8 -4 -11 -10z"/>
<path d="M1570 2616 c0 -2 7 -7 16 -10 8 -3 12 -2 9 4 -6 10 -25 14 -25 6z"/>
<path d="M1635 2600 c4 -6 11 -8 16 -5 14 9 11 15 -7 15 -8 0 -12 -5 -9 -10z"/>
<path d="M2195 2570 c-3 -5 -2 -10 4 -10 5 0 13 5 16 10 3 6 2 10 -4 10 -5 0
-13 -4 -16 -10z"/>
<path d="M3473 2573 c-18 -7 -16 -23 2 -23 8 0 15 7 15 15 0 8 -1 15 -2 14 -2
0 -9 -3 -15 -6z"/>
<path d="M3729 2538 c-7 -18 -24 -43 -38 -55 -23 -22 -23 -23 -4 -23 11 0 26
6 33 14 6 8 19 12 28 9 15 -6 15 -5 3 10 -8 11 -11 28 -7 47 7 39 2 38 -15 -2z"/>
<path d="M2600 2550 c-13 -8 -12 -10 3 -10 9 0 17 5 17 10 0 12 -1 12 -20 0z"/>
<path d="M3190 2550 c0 -5 5 -10 11 -10 5 0 7 5 4 10 -3 6 -8 10 -11 10 -2 0
-4 -4 -4 -10z"/>
<path d="M3470 2519 c0 -23 16 -25 36 -5 19 19 18 21 -11 22 -18 2 -25 -3 -25
-17z"/>
<path d="M3597 2517 c-3 -8 1 -21 9 -27 15 -13 17 -6 5 24 -6 17 -8 17 -14 3z"/>
<path d="M1890 2511 c0 -6 4 -13 10 -16 6 -3 7 1 4 9 -7 18 -14 21 -14 7z"/>
<path d="M3571 2474 c0 -11 3 -14 6 -6 3 7 2 16 -1 19 -3 4 -6 -2 -5 -13z"/>
<path d="M3731 2463 c-1 -6 -4 -20 -7 -30 -5 -17 -5 -17 6 0 6 10 9 23 6 30
-3 9 -5 9 -5 0z"/>
<path d="M2130 2440 c-23 -5 -23 -7 -6 -13 11 -4 24 -3 30 3 14 14 5 18 -24
10z"/>
<path d="M2262 2218 c2 -5 8 -9 13 -9 5 0 11 4 13 9 1 5 -4 9 -13 9 -9 0 -14
-4 -13 -9z"/>
<path d="M2430 2186 c0 -2 7 -6 15 -10 8 -3 15 -1 15 4 0 6 -7 10 -15 10 -8 0
-15 -2 -15 -4z"/>
<path d="M2537 2053 c-10 -9 -9 -23 2 -23 5 0 11 7 15 15 5 15 -5 20 -17 8z"/>
<path d="M2640 1700 c0 -5 7 -10 16 -10 8 0 12 5 9 10 -3 6 -10 10 -16 10 -5
0 -9 -4 -9 -10z"/>
<path d="M2715 1580 c-3 -5 -2 -10 4 -10 5 0 13 5 16 10 3 6 2 10 -4 10 -5 0
-13 -4 -16 -10z"/>
<path d="M2315 1540 c3 -5 8 -10 11 -10 2 0 4 5 4 10 0 6 -5 10 -11 10 -5 0
-7 -4 -4 -10z"/>
<path d="M2512 1528 c2 -6 20 -13 39 -14 19 -1 25 0 14 3 -11 3 -24 9 -29 14
-14 13 -28 11 -24 -3z"/>
<path d="M2620 1510 c0 -5 5 -10 11 -10 5 0 7 5 4 10 -3 6 -8 10 -11 10 -2 0
-4 -4 -4 -10z"/>
<path d="M2714 1495 c8 -8 20 -15 27 -15 9 0 8 4 -1 15 -7 8 -19 15 -27 15
-12 0 -12 -2 1 -15z"/>
<path d="M2555 1490 c3 -5 1 -10 -5 -10 -7 0 -6 -5 2 -14 7 -8 15 -12 17 -10
2 2 15 -6 29 -16 13 -11 30 -20 36 -20 6 0 -3 9 -20 19 -18 11 -35 25 -39 32
-5 8 -4 10 3 5 7 -4 12 -3 12 2 0 6 -7 13 -16 16 -22 8 -26 8 -19 -4z"/>
<path d="M2350 1456 c0 -2 8 -10 18 -17 15 -13 16 -12 3 4 -13 16 -21 21 -21
13z"/>
<path d="M2390 1421 c0 -5 5 -13 10 -16 6 -3 10 -2 10 4 0 5 -4 13 -10 16 -5
3 -10 2 -10 -4z"/>
<path d="M2690 1420 c0 -11 30 -34 30 -24 0 5 4 2 10 -6 5 -8 12 -11 16 -7 4
3 2 13 -5 21 -13 16 -51 28 -51 16z"/>
<path d="M2420 1380 c0 -23 39 -62 54 -53 4 3 4 8 -1 12 -5 3 -19 19 -31 35
-21 27 -22 27 -22 6z"/>
<path d="M2508 1353 c7 -3 16 -2 19 1 4 3 -2 6 -13 5 -11 0 -14 -3 -6 -6z"/>
<path d="M2868 1343 c6 -2 18 -2 25 0 6 3 1 5 -13 5 -14 0 -19 -2 -12 -5z"/>
<path d="M314 1322 c3 -5 0 -13 -6 -15 -9 -4 -10 -6 -1 -6 17 -1 25 16 12 25
-7 4 -9 3 -5 -4z"/>
<path d="M2820 1303 c0 -13 5 -23 10 -23 13 0 13 11 0 30 -8 12 -10 11 -10 -7z"/>
<path d="M2680 1299 c0 -6 -9 -7 -20 -4 -15 5 -20 2 -20 -14 0 -21 32 -37 50
-26 6 4 16 2 23 -3 8 -6 18 -3 31 9 15 14 16 19 5 19 -8 0 -26 7 -41 14 -16 9
-28 10 -28 5z"/>
<path d="M2265 1290 c3 -5 8 -10 11 -10 2 0 4 5 4 10 0 6 -5 10 -11 10 -5 0
-7 -4 -4 -10z"/>
<path d="M2498 1250 c5 -13 14 -26 20 -28 19 -6 14 13 -8 33 -20 18 -21 18
-12 -5z"/>
<path d="M2580 1256 c0 -2 7 -9 15 -16 12 -10 15 -10 15 4 0 9 -7 16 -15 16
-8 0 -15 -2 -15 -4z"/>
<path d="M2545 1240 c3 -5 8 -10 11 -10 2 0 4 5 4 10 0 6 -5 10 -11 10 -5 0
-7 -4 -4 -10z"/>
<path d="M2884 1225 c-4 -8 -14 -15 -23 -16 -11 0 -12 -2 -3 -6 8 -3 22 4 33
16 11 12 15 21 9 21 -6 0 -13 -7 -16 -15z"/>
<path d="M2810 1220 c0 -5 7 -10 15 -10 8 0 15 5 15 10 0 6 -7 10 -15 10 -8 0
-15 -4 -15 -10z"/>
<path d="M2630 1212 c0 -6 9 -12 20 -15 11 -3 20 -3 20 -1 0 2 -9 8 -20 14
-11 6 -20 7 -20 2z"/>
<path d="M2360 1186 c0 -2 8 -10 18 -17 15 -13 16 -12 3 4 -13 16 -21 21 -21
13z"/>
<path d="M2440 1180 c-9 -6 -10 -10 -3 -10 6 0 15 5 18 10 8 12 4 12 -15 0z"/>
<path d="M2610 1172 c0 -5 11 -19 24 -31 25 -23 25 -23 19 -2 -5 21 -43 50
-43 33z"/>
<path d="M2670 1155 c0 -9 5 -15 11 -13 6 2 11 8 11 13 0 5 -5 11 -11 13 -6 2
-11 -4 -11 -13z"/>
<path d="M2813 1158 c4 -10 4 -25 1 -33 -5 -13 -9 -13 -22 -3 -13 11 -14 10
-10 -2 3 -8 13 -14 22 -14 23 2 20 -13 -4 -21 -11 -3 -20 -10 -20 -14 0 -3 9
-7 20 -7 11 0 20 6 20 13 0 6 5 15 11 19 13 8 30 -15 23 -31 -3 -5 2 -1 10 9
17 21 19 17 -48 91 -5 6 -7 3 -3 -7z"/>
<path d="M2460 1148 c0 -18 18 -34 28 -24 3 4 -2 14 -11 23 -16 16 -17 16 -17
1z"/>
<path d="M2681 1104 c0 -11 3 -14 6 -6 3 7 2 16 -1 19 -3 4 -6 -2 -5 -13z"/>
<path d="M3075 1110 c-3 -5 -1 -10 4 -10 6 0 11 5 11 10 0 6 -2 10 -4 10 -3 0
-8 -4 -11 -10z"/>
<path d="M390 1100 c-9 -6 -10 -10 -3 -10 6 0 15 5 18 10 8 12 4 12 -15 0z"/>
<path d="M2408 1087 c19 -20 22 -32 18 -62 -5 -27 -3 -36 6 -33 15 5 22 41 14
72 -3 13 -18 28 -33 35 l-28 13 23 -25z"/>
<path d="M2567 1094 c3 -9 1 -19 -5 -23 -6 -4 -3 -14 9 -30 16 -19 20 -20 25
-7 6 16 -16 76 -28 76 -4 0 -5 -7 -1 -16z"/>
<path d="M2621 1094 c0 -11 3 -14 6 -6 3 7 2 16 -1 19 -3 4 -6 -2 -5 -13z"/>
<path d="M2915 1090 c3 -5 10 -10 16 -10 5 0 9 5 9 10 0 6 -7 10 -16 10 -8 0
-12 -4 -9 -10z"/>
<path d="M2648 1069 c7 -18 17 -24 41 -25 17 -1 31 3 31 9 0 5 -7 6 -16 3 -11
-4 -15 -2 -11 8 4 10 1 13 -9 9 -8 -3 -21 0 -29 7 -13 11 -14 9 -7 -11z"/>
<path d="M2740 1089 c0 -16 31 -79 40 -79 6 0 10 5 10 10 0 6 -4 10 -10 10 -5
0 -10 6 -10 13 0 13 -29 58 -30 46z"/>
<path d="M3022 1072 c-21 -16 -22 -20 -8 -31 13 -11 16 -11 16 3 0 9 4 16 9
16 5 0 11 7 15 15 7 20 -4 19 -32 -3z"/>
<path d="M2490 1058 c0 -7 12 -31 25 -53 14 -22 25 -50 25 -62 0 -27 12 -29
31 -7 10 12 10 17 0 23 -9 6 -8 11 4 21 12 10 19 10 23 3 5 -7 12 -2 19 13 16
34 -2 40 -31 9 -27 -29 -56 -25 -56 9 -1 21 -21 56 -34 56 -3 0 -6 -6 -6 -12z"/>
<path d="M2920 1059 c0 -5 5 -7 10 -4 6 3 10 8 10 11 0 2 -4 4 -10 4 -5 0 -10
-5 -10 -11z"/>
<path d="M2351 984 c0 -11 3 -14 6 -6 3 7 2 16 -1 19 -3 4 -6 -2 -5 -13z"/>
<path d="M2925 967 c-22 -12 -42 -23 -44 -24 -2 -1 3 -13 12 -27 l16 -24 -35
8 c-19 4 -34 4 -34 -1 0 -5 -7 -9 -16 -9 -8 0 -13 -4 -10 -9 3 -4 17 -6 31 -3
15 2 25 0 25 -7 0 -6 -7 -11 -15 -11 -12 0 -13 -4 -3 -25 8 -18 15 -22 23 -15
7 5 15 7 18 3 12 -11 8 -23 -8 -23 -8 0 -15 -6 -15 -14 0 -10 -18 -17 -57 -22
-44 -5 -53 -9 -36 -15 24 -9 40 -29 22 -29 -8 0 -8 -4 -1 -12 5 -7 12 -24 14
-38 2 -18 8 -24 22 -22 11 2 15 -1 11 -7 -3 -6 1 -11 10 -11 14 0 16 6 10 28
-4 15 -8 34 -10 42 -2 8 -6 23 -10 33 -8 18 9 24 20 7 4 -6 10 -8 15 -5 5 3
14 -4 20 -15 13 -24 30 -26 30 -5 0 9 6 18 13 21 16 6 14 57 -3 62 -7 3 -10 0
-6 -7 4 -6 -3 -21 -15 -33 l-21 -23 7 25 c4 14 17 35 28 47 11 13 17 26 13 30
-4 4 -11 1 -17 -7 -8 -13 -10 -13 -19 0 -13 19 -13 30 0 31 6 1 16 2 23 3 6 1
17 -2 23 -6 7 -5 14 -3 18 7 3 8 1 16 -4 16 -6 1 -14 2 -18 3 -13 2 -38 30
-37 41 1 20 17 35 36 35 11 0 17 -4 14 -10 -3 -5 -2 -10 4 -10 13 0 32 35 24
44 -10 10 -25 6 -68 -17z"/>
<path d="M3230 980 c0 -5 5 -10 11 -10 5 0 7 5 4 10 -3 6 -8 10 -11 10 -2 0
-4 -4 -4 -10z"/>
<path d="M2730 971 c0 -3 9 -12 20 -19 16 -10 20 -10 20 2 0 7 -9 16 -20 19
-11 3 -20 2 -20 -2z"/>
<path d="M3027 973 c-4 -3 -7 -18 -7 -31 0 -31 9 -24 16 12 4 27 2 31 -9 19z"/>
<path d="M2802 935 c-14 -23 -17 -35 -9 -35 13 0 43 58 34 66 -2 3 -14 -11
-25 -31z"/>
<path d="M3060 950 c0 -5 5 -10 11 -10 5 0 7 5 4 10 -3 6 -8 10 -11 10 -2 0
-4 -4 -4 -10z"/>
<path d="M3110 941 c0 -5 5 -13 10 -16 6 -3 10 -2 10 4 0 5 -4 13 -10 16 -5 3
-10 2 -10 -4z"/>
<path d="M2734 918 c5 -21 3 -28 -8 -28 -8 0 -17 6 -19 13 -4 7 -6 6 -6 -5 -1
-9 -4 -18 -8 -21 -5 -2 -3 -3 3 -1 6 1 17 -10 24 -24 12 -24 14 -25 17 -7 2
11 9 30 15 43 10 18 8 26 -6 40 -18 16 -18 16 -12 -10z"/>
<path d="M2595 900 c-3 -5 1 -10 10 -10 9 0 13 5 10 10 -3 6 -8 10 -10 10 -2
0 -7 -4 -10 -10z"/>
<path d="M3095 900 c-3 -5 -1 -10 4 -10 6 0 11 5 11 10 0 6 -2 10 -4 10 -3 0
-8 -4 -11 -10z"/>
<path d="M2516 887 c3 -10 9 -15 12 -12 3 3 0 11 -7 18 -10 9 -11 8 -5 -6z"/>
<path d="M2640 883 c0 -12 5 -25 10 -28 13 -8 13 15 0 35 -8 12 -10 11 -10 -7z"/>
<path d="M3056 886 c3 -9 11 -16 16 -16 13 0 5 23 -10 28 -7 2 -10 -2 -6 -12z"/>
<path d="M2465 879 c-4 -6 -5 -12 -2 -15 7 -7 37 7 37 17 0 13 -27 11 -35 -2z"/>
<path d="M2760 880 c0 -5 4 -10 9 -10 6 0 13 5 16 10 3 6 -1 10 -9 10 -9 0
-16 -4 -16 -10z"/>
<path d="M3097 863 c-9 -31 -1 -65 18 -79 11 -8 16 -21 12 -34 -6 -25 11 -22
27 4 9 13 7 19 -6 27 -10 6 -21 28 -24 50 -7 44 -20 59 -27 32z"/>
<path d="M2520 840 c0 -11 6 -20 14 -20 9 0 12 7 9 20 -3 11 -9 20 -14 20 -5
0 -9 -9 -9 -20z"/>
<path d="M2670 841 c0 -10 -5 -21 -11 -23 -7 -2 -6 -13 2 -33 7 -17 12 -33 11
-36 -1 -4 10 -10 24 -13 14 -4 22 -11 18 -17 -4 -6 0 -15 7 -20 21 -13 35 -11
21 3 -14 14 -16 32 -2 23 13 -8 0 28 -14 37 -6 4 -14 2 -18 -5 -4 -7 -6 3 -3
21 3 31 -8 44 -18 20 -3 -7 -4 2 -2 19 2 18 -1 35 -6 38 -5 4 -9 -3 -9 -14z"/>
<path d="M2110 826 c0 -9 5 -16 10 -16 6 0 10 4 10 9 0 6 -4 13 -10 16 -5 3
-10 -1 -10 -9z"/>
<path d="M2480 830 c0 -5 5 -10 11 -10 5 0 7 5 4 10 -3 6 -8 10 -11 10 -2 0
-4 -4 -4 -10z"/>
<path d="M3162 810 c-7 -11 -8 -20 -3 -20 9 0 24 30 18 36 -1 2 -8 -6 -15 -16z"/>
<path d="M3240 795 c-9 -11 -10 -19 -3 -26 7 -7 12 -2 15 15 6 30 5 31 -12 11z"/>
<path d="M3050 775 c0 -12 -7 -14 -27 -9 l-27 7 17 -27 18 -27 -28 3 c-22 2
-29 -1 -31 -19 -2 -15 4 -23 19 -28 21 -7 21 -9 6 -20 -19 -14 -24 -59 -5 -53
16 6 59 88 46 88 -6 0 2 13 19 28 23 23 28 34 22 50 -10 25 -29 29 -29 7z
m-50 -65 c0 -5 -4 -10 -10 -10 -5 0 -10 5 -10 10 0 6 5 10 10 10 6 0 10 -4 10
-10z"/>
<path d="M3216 724 c-11 -8 -16 -14 -10 -14 5 0 3 -4 -4 -8 -7 -5 -10 -16 -6
-25 3 -9 10 -14 15 -11 5 3 7 9 4 14 -3 5 2 13 11 18 9 5 14 16 13 25 -4 14
-6 14 -23 1z"/>
<path d="M2590 720 c0 -6 7 -13 16 -17 8 -3 13 -11 10 -18 -3 -8 2 -16 9 -19
24 -9 24 8 0 37 -26 29 -35 33 -35 17z"/>
<path d="M3070 715 c0 -8 2 -15 4 -15 2 0 6 7 10 15 3 8 1 15 -4 15 -6 0 -10
-7 -10 -15z"/>
<path d="M2532 698 c-7 -7 -12 -19 -12 -27 0 -9 6 -7 20 9 11 13 20 25 20 27
0 7 -17 2 -28 -9z"/>
<path d="M2750 673 c0 -16 16 -31 40 -38 23 -7 24 -6 11 9 -17 21 -51 40 -51
29z"/>
<path d="M1317 620 c3 -11 7 -20 9 -20 2 0 4 9 4 20 0 11 -4 20 -9 20 -5 0 -7
-9 -4 -20z"/>
<path d="M799 607 c7 -7 14 -8 21 -1 6 6 2 10 -12 11 -16 2 -18 -1 -9 -10z"/>
<path d="M2800 611 c0 -5 -11 -13 -25 -18 -19 -6 -22 -12 -15 -23 7 -10 12
-11 18 -4 4 6 15 13 25 17 18 7 24 37 7 37 -5 0 -10 -4 -10 -9z"/>
<path d="M3073 613 c-7 -3 -13 -12 -13 -21 0 -9 -4 -23 -9 -30 -7 -12 -12 -12
-32 0 -13 7 -29 19 -37 26 -19 17 -24 15 -18 -5 4 -12 -4 -26 -24 -42 -16 -13
-27 -28 -24 -33 4 -6 10 -5 15 3 6 10 11 5 20 -16 10 -28 12 -28 19 -10 5 11
6 30 3 41 -7 32 15 39 41 15 26 -25 36 -26 36 -6 0 7 8 19 18 24 9 6 13 11 9
11 -4 0 -3 9 3 21 13 23 11 28 -7 22z"/>
<path d="M3276 605 c4 -8 8 -15 10 -15 2 0 4 7 4 15 0 8 -4 15 -10 15 -5 0 -7
-7 -4 -15z"/>
<path d="M3146 594 c-22 -22 -20 -44 5 -44 14 0 19 5 16 15 -4 8 -2 17 3 20
13 8 13 25 1 25 -5 0 -17 -7 -25 -16z"/>
<path d="M2703 572 c-10 -6 -10 -12 2 -28 14 -18 14 -18 13 9 -1 15 -3 27 -3
27 0 0 -6 -4 -12 -8z"/>
<path d="M2885 570 c-3 -5 -2 -10 4 -10 5 0 13 5 16 10 3 6 2 10 -4 10 -5 0
-13 -4 -16 -10z"/>
<path d="M2921 566 c-16 -19 -11 -29 8 -17 7 5 12 14 9 21 -3 9 -8 7 -17 -4z"/>
<path d="M2840 560 c0 -5 5 -10 10 -10 6 0 10 5 10 10 0 6 -4 10 -10 10 -5 0
-10 -4 -10 -10z"/>
<path d="M3090 560 c0 -5 5 -10 11 -10 5 0 7 5 4 10 -3 6 -8 10 -11 10 -2 0
-4 -4 -4 -10z"/>
<path d="M2730 540 c0 -5 5 -10 11 -10 5 0 7 5 4 10 -3 6 -8 10 -11 10 -2 0
-4 -4 -4 -10z"/>
<path d="M2875 540 c3 -5 11 -10 16 -10 6 0 7 5 4 10 -3 6 -11 10 -16 10 -6 0
-7 -4 -4 -10z"/>
<path d="M2777 521 c-4 -17 -3 -21 5 -13 5 5 8 16 6 23 -3 8 -7 3 -11 -10z"/>
<path d="M3122 533 c1 -5 -3 -18 -11 -31 -7 -13 -10 -31 -8 -40 4 -13 5 -11 6
5 0 12 5 23 10 25 13 5 24 48 12 48 -6 0 -10 -3 -9 -7z"/>
<path d="M2702 497 c-8 -10 -6 -13 7 -13 11 0 17 6 14 13 -3 7 -6 13 -8 13 -1
0 -7 -6 -13 -13z"/>
<path d="M2885 490 c-3 -5 1 -10 10 -10 9 0 13 5 10 10 -3 6 -8 10 -10 10 -2
0 -7 -4 -10 -10z"/>
<path d="M2758 483 c7 -3 16 -2 19 1 4 3 -2 6 -13 5 -11 0 -14 -3 -6 -6z"/>
<path d="M2911 449 c-13 -5 -21 -12 -18 -15 9 -9 57 5 57 16 0 12 -7 12 -39
-1z"/>
<path d="M2747 416 c-3 -8 -2 -18 4 -22 16 -9 22 2 11 21 -8 15 -10 16 -15 1z"/>
<path d="M2927 413 c-10 -9 -9 -23 1 -23 5 0 9 7 9 15 0 17 -1 18 -10 8z"/>
<path d="M2956 405 c-9 -26 -7 -32 5 -12 6 10 9 21 6 23 -2 3 -7 -2 -11 -11z"/>
<path d="M2680 363 c8 -3 19 -11 23 -17 6 -7 7 -6 4 4 -2 8 -12 16 -23 17 -13
2 -15 1 -4 -4z"/>
<path d="M2920 352 c0 -15 4 -20 16 -15 9 3 12 9 7 12 -4 3 -11 10 -15 15 -5
5 -8 0 -8 -12z"/>
<path d="M3058 363 c7 -3 16 -2 19 1 4 3 -2 6 -13 5 -11 0 -14 -3 -6 -6z"/>
<path d="M2835 343 c-11 -2 -28 -15 -37 -28 -17 -23 -17 -24 1 -22 12 1 17 6
13 16 -3 8 -1 12 5 8 6 -4 16 0 23 8 7 8 17 12 23 8 6 -3 7 -1 3 5 -4 7 -8 11
-9 11 -1 -1 -11 -4 -22 -6z"/>
<path d="M1778 333 c7 -3 16 -2 19 1 4 3 -2 6 -13 5 -11 0 -14 -3 -6 -6z"/>
<path d="M1855 320 c-3 -5 -1 -10 4 -10 6 0 11 5 11 10 0 6 -2 10 -4 10 -3 0
-8 -4 -11 -10z"/>
<path d="M3081 244 c0 -11 3 -14 6 -6 3 7 2 16 -1 19 -3 4 -6 -2 -5 -13z"/>
<path d="M2860 211 c0 -5 -10 -7 -22 -4 -23 5 -23 5 -3 -10 26 -21 32 -21 38
3 3 11 1 20 -4 20 -5 0 -9 -4 -9 -9z"/>
<path d="M1615 180 c4 -6 11 -8 16 -5 14 9 11 15 -7 15 -8 0 -12 -5 -9 -10z"/>
<path d="M2188 83 c6 -2 18 -2 25 0 6 3 1 5 -13 5 -14 0 -19 -2 -12 -5z"/>
</g>
</svg>
